<mxfile host="app.diagrams.net" modified="2021-04-07T17:04:38.130Z" agent="5.0 (Macintosh; Intel Mac OS X 11_2_3) AppleWebKit/537.36 (KHTML, like Gecko) Chrome/89.0.4389.90 Safari/537.36" etag="AmFWtLZUP52VYUoN34gv" version="14.5.8" type="github">
  <diagram id="zefnjzSovRAP0xZEdHpG" name="Page-1">
    <mxGraphModel dx="946" dy="2984" grid="1" gridSize="10" guides="1" tooltips="1" connect="1" arrows="1" fold="1" page="1" pageScale="1" pageWidth="827" pageHeight="1169" math="0" shadow="0">
      <root>
        <mxCell id="0" />
        <mxCell id="1" parent="0" />
        <mxCell id="ftK1ILel6ErgUHNae4pF-1" value="&lt;div class=&quot;page&quot; title=&quot;Page 1&quot;&gt;&lt;br&gt;			&lt;div class=&quot;layoutArea&quot;&gt;&lt;div class=&quot;column&quot;&gt;&lt;p&gt;&lt;span style=&quot;font-size: 25.000000pt ; font-family: &amp;#34;lato&amp;#34; ; font-weight: 700 ; color: rgb(8.600000% , 8.600000% , 8.600000%)&quot;&gt;ROMAN LEBEDENKO&lt;/span&gt;&lt;/p&gt;&lt;br&gt;				&lt;/div&gt;&lt;br&gt;			&lt;/div&gt;&lt;br&gt;		&lt;/div&gt;" style="text;whiteSpace=wrap;html=1;" parent="1" vertex="1">
          <mxGeometry x="40" y="-2338" width="400" height="78" as="geometry" />
        </mxCell>
        <mxCell id="ftK1ILel6ErgUHNae4pF-2" value="&lt;div class=&quot;page&quot; title=&quot;Page 1&quot; style=&quot;font-size: 20px&quot;&gt;&lt;div class=&quot;layoutArea&quot;&gt;&lt;div class=&quot;column&quot;&gt;&lt;p&gt;&lt;font color=&quot;#000c97&quot; face=&quot;lato&quot; style=&quot;font-size: 20px&quot;&gt;&lt;span&gt;&lt;b&gt;Full-stack web developer&lt;/b&gt;&lt;/span&gt;&lt;/font&gt;&lt;/p&gt;				&lt;/div&gt;&lt;/div&gt;&lt;br&gt;		&lt;/div&gt;" style="text;whiteSpace=wrap;html=1;" parent="1" vertex="1">
          <mxGeometry x="40" y="-2290" width="310" height="60" as="geometry" />
        </mxCell>
        <mxCell id="eHcJUUY57HZsu9Kts_Zq-1" value="&lt;div class=&quot;page&quot; title=&quot;Page 1&quot;&gt;&lt;div class=&quot;layoutArea&quot;&gt;&lt;div class=&quot;column&quot;&gt;&lt;p&gt;&lt;span style=&quot;font-size: 8.000000pt ; font-family: &amp;#34;lato&amp;#34; ; font-weight: 700 ; color: rgb(8.600000% , 8.600000% , 8.600000%)&quot;&gt;&amp;nbsp;ceobit90@gmail.com&lt;/span&gt;&lt;/p&gt;&lt;/div&gt;			&lt;/div&gt;&lt;br&gt;		&lt;/div&gt;" style="text;whiteSpace=wrap;html=1;" vertex="1" parent="1">
          <mxGeometry x="51.88" y="-2250" width="110" height="30" as="geometry" />
        </mxCell>
        <mxCell id="eHcJUUY57HZsu9Kts_Zq-3" value="&lt;div class=&quot;page&quot; title=&quot;Page 1&quot;&gt;&lt;div class=&quot;layoutArea&quot;&gt;&lt;div class=&quot;column&quot;&gt;&lt;p&gt;&lt;font color=&quot;#161616&quot; face=&quot;lato&quot;&gt;&lt;span style=&quot;font-size: 10.6667px&quot;&gt;&lt;b&gt;github.com/ceobit&lt;/b&gt;&lt;/span&gt;&lt;/font&gt;&lt;/p&gt;&lt;/div&gt;			&lt;/div&gt;&lt;br&gt;		&lt;/div&gt;" style="text;whiteSpace=wrap;html=1;" vertex="1" parent="1">
          <mxGeometry x="200" y="-2250" width="150" height="50" as="geometry" />
        </mxCell>
        <mxCell id="eHcJUUY57HZsu9Kts_Zq-4" value="&lt;div class=&quot;page&quot; title=&quot;Page 1&quot;&gt;&lt;div class=&quot;layoutArea&quot;&gt;&lt;br&gt;				&lt;div class=&quot;column&quot;&gt;&lt;p&gt;&lt;span style=&quot;color: rgba(0 , 0 , 0 , 0) ; font-family: monospace ; font-size: 0px&quot;&gt;%3CmxGraphModel%3E%3Croot%3E%3CmxCell%20id%3D%220%22%2F%3E%3CmxCell%20id%3D%221%22%20parent%3D%220%22%2F%3E%3CmxCell%20id%3D%222%22%20value%3D%22%22%20style%3D%22shape%3Dimage%3BverticalLabelPosition%3Dbottom%3BlabelBackgroundColor%3D%23ffffff%3BverticalAlign%3Dtop%3Baspect%3Dfixed%3BimageAspect%3D0%3Bimage%3Ddata%3Aimage%2Fpng%2CiVBORw0KGgoAAAANSUhEUgAAACYAAAAgCAYAAAB%2BZAqzAAACqUlEQVRYCe2WW0hUQRjHfYhuEElF2cWQLlb60AWEoB4CM%2Bi1kB56q4d6C4oeehCKAh%2B6R7vrbusN7UaUFpUJaVARGZSSmeW6uqtYPuRurtrKbtsX38IsO%2Bc7Z5tvjoQPDhzmnO%2F8Z%2F6%2FM2dmvsmCaVqypikXzIBx%2F8yUjFjo5yS0vByEZ61B6AuMQiLxh8tB9Npg0cnfcOrcG8jfXgezcq5L1%2BJ8D5SVv4UfoSgxVA1ogbW9H4bCnTclGCMcPucUeOFrb1iVRdKxwT51j8D8XNc%2FoQTouqJa%2BDY8IZmqPLDA4vEEFJXcVYYScNuK70BkLKbCk9KwwC652gnUovUecFZ9hP7gKPQPRMBd2wlLNtwgussV7SlTlRsW2N4DDyXDBXkV0N0TIj49%2FjAsXOOWtJt33SK6TAEW2LJNXskMV55VOXvxnaSdvcIBsVjCSk7iymADQ2OSEc6f5hdB0qEI4J4m5pioOYtAGQznkDAQ9b1HPsFB6sYmP9EHBiNEZxVQBhufiMHcVU7JrPTQU6t%2B4eDRZkk7L9cJv6JxS73xhTIYNty9v0Eyw5G75ukw9gmu6k6i21PaSHSZAiyw%2B497iSHCFe9rgAuOD8kLAcSvTq8fPPFn4iDvWGCYnAt21Jsap0MY77ENN7GzwPCzam5%2FZoNhG25hg%2BFelLe1RhkOtZz9S3wAGwwbXvV0KINdcdPFIcwz1VpguHUYs4BxXuHz0o1eQK1O0QJDI2PKMQM7c75NhynZRhtsJByF7LVyok6HwyT%2B30%2BwYhhOnn5tOdeOl70SMq1ae8TQbej7uOlpFtMPJn07xRYYGh850UpG7fCx53aYkm1tg%2Fn8YZiz0pGCw3PXFx89PHJJbYOhYVNLAJYXVsLqLdVQWd%2FFZTDVTwmYac82gzNg3AH8C%2B%2FN5azKxRIRAAAAAElFTkSuQmCC%3B%22%20vertex%3D%221%22%20parent%3D%221%22%3E%3CmxGeometry%20x%3D%22230%22%20y%3D%22-2100%22%20width%3D%2211.88%22%20height%3D%2210%22%20as%3D%22geometry%22%2F%3E%3C%2FmxCell%3E%3C%2Froot%3E%3C%2FmxGraphModel%.&amp;nbsp;&amp;nbsp;&lt;/span&gt;&lt;span style=&quot;color: rgba(0 , 0 , 0 , 0) ; font-family: monospace ; font-size: 0px&quot;&gt;%3CmxGraphModel%3E%3Croot%3E%3CmxCell%20id%3D%220%22%2F%3E%3CmxCell%20id%3D%221%22%20parent%3D%220%22%2F%3E%3CmxCell%20id%3D%222%22%20value%3D%22%22%20style%3D%22shape%3Dimage%3BverticalLabelPosition%3Dbottom%3BlabelBackgroundColor%3D%23ffffff%3BverticalAlign%3Dtop%3Baspect%3Dfixed%3BimageAspect%3D0%3Bimage%3Ddata%3Aimage%2Fpng%2CiVBORw0KGgoAAAANSUhEUgAAACYAAAAgCAYAAAB%2BZAqzAAACqUlEQVRYCe2WW0hUQRjHfYhuEElF2cWQLlb60AWEoB4CM%2Bi1kB56q4d6C4oeehCKAh%2B6R7vrbusN7UaUFpUJaVARGZSSmeW6uqtYPuRurtrKbtsX38IsO%2Bc7Z5tvjoQPDhzmnO%2F8Z%2F6%2FM2dmvsmCaVqypikXzIBx%2F8yUjFjo5yS0vByEZ61B6AuMQiLxh8tB9Npg0cnfcOrcG8jfXgezcq5L1%2BJ8D5SVv4UfoSgxVA1ogbW9H4bCnTclGCMcPucUeOFrb1iVRdKxwT51j8D8XNc%2FoQTouqJa%2BDY8IZmqPLDA4vEEFJXcVYYScNuK70BkLKbCk9KwwC652gnUovUecFZ9hP7gKPQPRMBd2wlLNtwgussV7SlTlRsW2N4DDyXDBXkV0N0TIj49%2FjAsXOOWtJt33SK6TAEW2LJNXskMV55VOXvxnaSdvcIBsVjCSk7iymADQ2OSEc6f5hdB0qEI4J4m5pioOYtAGQznkDAQ9b1HPsFB6sYmP9EHBiNEZxVQBhufiMHcVU7JrPTQU6t%2B4eDRZkk7L9cJv6JxS73xhTIYNty9v0Eyw5G75ukw9gmu6k6i21PaSHSZAiyw%2B497iSHCFe9rgAuOD8kLAcSvTq8fPPFn4iDvWGCYnAt21Jsap0MY77ENN7GzwPCzam5%2FZoNhG25hg%2BFelLe1RhkOtZz9S3wAGwwbXvV0KINdcdPFIcwz1VpguHUYs4BxXuHz0o1eQK1O0QJDI2PKMQM7c75NhynZRhtsJByF7LVyok6HwyT%2B30%2BwYhhOnn5tOdeOl70SMq1ae8TQbej7uOlpFtMPJn07xRYYGh850UpG7fCx53aYkm1tg%2Fn8YZiz0pGCw3PXFx89PHJJbYOhYVNLAJYXVsLqLdVQWd%2FFZTDVTwmYac82gzNg3AH8C%2B%2FN5azKxRIRAAAAAElFTkSuQmCC%3B%22%20vertex%3D%221%22%20parent%3D%221%22%3E%3CmxGeometry%20x%3D%22318.12%22%20y%3D%22-2230%22%20width%3D%2211.88%22%20height%3D%2210%22%20as%3D%22geometry%22%2F%3E%3C%2FmxCell%3E%3C%2Froot%3E%3C%2FmxGraphModel%3E&lt;/span&gt;&lt;b style=&quot;font-size: 10.6667px ; color: rgb(22 , 22 , 22) ; font-family: &amp;#34;lato&amp;#34;&quot;&gt;Hamburg&lt;/b&gt;&lt;/p&gt;&lt;/div&gt;&lt;/div&gt;		&lt;/div&gt;" style="text;whiteSpace=wrap;html=1;" vertex="1" parent="1">
          <mxGeometry x="330" y="-2265" width="150" height="60" as="geometry" />
        </mxCell>
        <mxCell id="eHcJUUY57HZsu9Kts_Zq-5" value="&lt;div class=&quot;page&quot; title=&quot;Page 1&quot;&gt;&lt;br&gt;		&lt;/div&gt;" style="text;whiteSpace=wrap;html=1;" vertex="1" parent="1">
          <mxGeometry x="330" y="-2120" width="30" height="140" as="geometry" />
        </mxCell>
        <mxCell id="eHcJUUY57HZsu9Kts_Zq-12" value="" style="shape=image;verticalLabelPosition=bottom;labelBackgroundColor=#ffffff;verticalAlign=top;aspect=fixed;imageAspect=0;image=data:image/png,iVBORw0KGgoAAAANSUhEUgAAACYAAAAgCAYAAAB+ZAqzAAACqUlEQVRYCe2WW0hUQRjHfYhuEElF2cWQLlb60AWEoB4CM+i1kB56q4d6C4oeehCKAh+6R7vrbusN7UaUFpUJaVARGZSSmeW6uqtYPuRurtrKbtsX38IsO+c7Z5tvjoQPDhzmnO/8Z/6/M2dmvsmCaVqypikXzIBx/8yUjFjo5yS0vByEZ61B6AuMQiLxh8tB9Npg0cnfcOrcG8jfXgezcq5L1+J8D5SVv4UfoSgxVA1ogbW9H4bCnTclGCMcPucUeOFrb1iVRdKxwT51j8D8XNc/oQTouqJa+DY8IZmqPLDA4vEEFJXcVYYScNuK70BkLKbCk9KwwC652gnUovUecFZ9hP7gKPQPRMBd2wlLNtwgussV7SlTlRsW2N4DDyXDBXkV0N0TIj49/jAsXOOWtJt33SK6TAEW2LJNXskMV55VOXvxnaSdvcIBsVjCSk7iymADQ2OSEc6f5hdB0qEI4J4m5pioOYtAGQznkDAQ9b1HPsFB6sYmP9EHBiNEZxVQBhufiMHcVU7JrPTQU6t+4eDRZkk7L9cJv6JxS73xhTIYNty9v0Eyw5G75ukw9gmu6k6i21PaSHSZAiyw+497iSHCFe9rgAuOD8kLAcSvTq8fPPFn4iDvWGCYnAt21Jsap0MY77ENN7GzwPCzam5/ZoNhG25hg+FelLe1RhkOtZz9S3wAGwwbXvV0KINdcdPFIcwz1VpguHUYs4BxXuHz0o1eQK1O0QJDI2PKMQM7c75NhynZRhtsJByF7LVyok6HwyT+30+wYhhOnn5tOdeOl70SMq1ae8TQbej7uOlpFtMPJn07xRYYGh850UpG7fCx53aYkm1tg/n8YZiz0pGCw3PXFx89PHJJbYOhYVNLAJYXVsLqLdVQWd/FZTDVTwmYac82gzNg3AH8C+/N5azKxRIRAAAAAElFTkSuQmCC;" vertex="1" parent="1">
          <mxGeometry x="318.12" y="-2230" width="11.88" height="10" as="geometry" />
        </mxCell>
        <mxCell id="eHcJUUY57HZsu9Kts_Zq-13" value="" style="shape=image;verticalLabelPosition=bottom;labelBackgroundColor=#ffffff;verticalAlign=top;aspect=fixed;imageAspect=0;image=data:image/png,iVBORw0KGgoAAAANSUhEUgAAACYAAAAaCAYAAADbhS54AAAER0lEQVRYCc1WWUyVRxT2QWs1TW1Tk2pFjUtr1brGJWKsxq0usattbYxrIjXUpXVPKm59oE3bxDSCQpVFBbxBViFaUKSAiFYsDbihuICIIBTZRAT5mm9uZhh6778AL54EZu6ZM+d8/9nmdMILSp1eUFzoELDGxue4WVCJPzOLEZVwC2fSipB3rQJV1Q0d/t52AUtKLcRS7yT0HPI7Ovfa5/LXtY8fpn4YhZ/3ZaOm9lm7QLYJWO7VcsxaGOsCxB04yes3OhhhUTfaDM42sMj4m3h1wAEFqvfwQ/h2exqSUwtxp7AalVVPkf1PGUId17Bl9zlMnh+pZAly3qJ4PG1osg3QFrDg8Kvo0rslZItX/4Hyf+stjRyJvI5eww4qgF95nUJzs+U1IWAJLOPCA3Tvu18opxEmuaSEpDv4zicd42c50K2vP/qPDsYGn3Tcuv0YxSW1iE4sQODhPOEtGdqte87J66arKbCGZ014e+JhAeqlt/xw/q8SoexJfSOWr0lWnpBG5frm0IP4eGmCOs+8WIJhk4+K3ywMht6KTIH9FpijlG/7IVPoKit/IjwkQRDwuJkOrNqQghmfxih5eU4g/JD0rGKVDpt2ZljhMu9j0lsjp4arxPXamKKMDxgbggvZD1sZCQq7os4JbtS0cHW+etNZcfbGO4GWbcTQY2wN8quZK6ScvEegh8hnPtF77kivyBVrk5UIG7HUeTbjvuK72xgCk2F8pf9+1NY5m+SCxSeU4nCT3uS9JVXJUY8kVrIExko3I0Ng7EVUwoqTJDv9iPdbwiPP9PVrLdzMLZ08RgYJvTt+zNLZLntDYMu+cVYdvUQqelCjvnblutMuinTGtI+ihSx7X3VN6ydp5mfOAmGxmJEhMJmosz+PFfdPpdxTwH7xu2yos6KyHj0GBgjZoZ5HXeRYDIzE+u/TXM50hiEw372XhAL2H1JEdL4CdiAkV9fRau/jm6Xk+ELoRO/J4gmJaGeOMbllojKMbK7yN5PbHV25XoHXBzu9Rdn/e/ZX/8tKx9+5Ze5UKJ6hx0pK6/Cyh79QRIWsKDZLGmSlEoROl3JKwY4vwXM9FpMvRJqamhEQmqsa7JQFx0GeGRkC46VPliUKQ/QCnxEmvTTMSWPNtlTs/ClLzF4StDznOnbGMXGHjVjyWdl3izr4JOkJz2q6d78a73o63zxpSF8Hjw8VL8Frg1rCqZ9PmhsJetYOmXqMCjipSuUM6eOqBjGHDZl0RPH7jAgSvNJHzpegsLgGLIIJsx2Y82UcNu/KQOzJAtsjD+1aAuMAqIdiiXcS2BJIBGk2OnMw5Mds3JFumVNCofbPEhhlOV/JB53eY/eOO3lbU+O6dcTmg6GV3uZk2xayBYwKH5bVwXNe63GZnmTr2BuQA759233Pi4IZNK4FEIF98EWcrYTXgdsGxksciznBjpkeoTwhPeJufW9KGBKT7+r2bO//AySQ6wPx139UAAAAAElFTkSuQmCC;" vertex="1" parent="1">
          <mxGeometry x="40" y="-2228.13" width="11.88" height="8.13" as="geometry" />
        </mxCell>
        <mxCell id="eHcJUUY57HZsu9Kts_Zq-14" value="&lt;div class=&quot;page&quot; title=&quot;Page 1&quot;&gt;&lt;br&gt;			&lt;div class=&quot;layoutArea&quot;&gt;&lt;div class=&quot;column&quot;&gt;&lt;p&gt;&lt;span style=&quot;font-size: 17.000000pt ; font-family: &amp;#34;lato&amp;#34; ; font-weight: 700 ; color: rgb(0.000000% , 4.700000% , 59.200000%)&quot;&gt;EXPERIENCE&lt;/span&gt;&lt;/p&gt;&lt;/div&gt;			&lt;/div&gt;&lt;br&gt;		&lt;/div&gt;" style="text;whiteSpace=wrap;html=1;" vertex="1" parent="1">
          <mxGeometry x="40" y="-2220" width="170" height="80" as="geometry" />
        </mxCell>
        <mxCell id="eHcJUUY57HZsu9Kts_Zq-15" value="" style="endArrow=none;html=1;strokeWidth=3;strokeColor=#2D0B7D;" edge="1" parent="1">
          <mxGeometry width="50" height="50" relative="1" as="geometry">
            <mxPoint x="40" y="-2160" as="sourcePoint" />
            <mxPoint x="130" y="-2160" as="targetPoint" />
            <Array as="points">
              <mxPoint x="80" y="-2160" />
            </Array>
          </mxGeometry>
        </mxCell>
        <mxCell id="eHcJUUY57HZsu9Kts_Zq-19" value="" style="endArrow=none;html=1;strokeWidth=3;strokeColor=#2D0B7D;" edge="1" parent="1">
          <mxGeometry width="50" height="50" relative="1" as="geometry">
            <mxPoint x="40" y="-2160" as="sourcePoint" />
            <mxPoint x="350" y="-2160" as="targetPoint" />
            <Array as="points">
              <mxPoint x="80" y="-2160" />
            </Array>
          </mxGeometry>
        </mxCell>
        <mxCell id="eHcJUUY57HZsu9Kts_Zq-20" value="" style="endArrow=none;html=1;strokeWidth=3;strokeColor=#2D0B7D;" edge="1" parent="1">
          <mxGeometry width="50" height="50" relative="1" as="geometry">
            <mxPoint x="40" y="-2160" as="sourcePoint" />
            <mxPoint x="440" y="-2160" as="targetPoint" />
            <Array as="points">
              <mxPoint x="80" y="-2160" />
            </Array>
          </mxGeometry>
        </mxCell>
        <mxCell id="eHcJUUY57HZsu9Kts_Zq-21" value="&lt;div class=&quot;page&quot; title=&quot;Page 1&quot;&gt;&#xa;			&lt;div class=&quot;layoutArea&quot;&gt;&#xa;				&lt;div class=&quot;column&quot;&gt;&#xa;					&lt;p&gt;&lt;span style=&quot;font-size: 17.000000pt ; font-family: &amp;quot;lato&amp;quot; ; font-weight: 700 ; color: rgb(0.000000% , 4.700000% , 59.200000%)&quot;&gt;SUMMARY&#xa;&lt;/span&gt;&lt;/p&gt;&#xa;				&lt;/div&gt;&#xa;			&lt;/div&gt;&#xa;		&lt;/div&gt;" style="text;whiteSpace=wrap;html=1;" vertex="1" parent="1">
          <mxGeometry x="540" y="-2250" width="150" height="140" as="geometry" />
        </mxCell>
        <mxCell id="eHcJUUY57HZsu9Kts_Zq-23" value="" style="endArrow=none;html=1;strokeWidth=3;strokeColor=#2D0B7D;" edge="1" parent="1">
          <mxGeometry width="50" height="50" relative="1" as="geometry">
            <mxPoint x="540" y="-2160" as="sourcePoint" />
            <mxPoint x="780" y="-2160" as="targetPoint" />
            <Array as="points">
              <mxPoint x="580" y="-2160" />
            </Array>
          </mxGeometry>
        </mxCell>
      </root>
    </mxGraphModel>
  </diagram>
</mxfile>
